<svg xmlns="http://www.w3.org/2000/svg" xmlns:xlink="http://www.w3.org/1999/xlink" width="874" zoomAndPan="magnify" viewBox="0 0 655.5 171.000002" height="228" preserveAspectRatio="xMidYMid meet" version="1.0"><defs><clipPath id="bab8c4cb9f"><path d="M 225 5 L 288.308594 5 L 288.308594 165 L 225 165 Z M 225 5 " clip-rule="nonzero"/></clipPath><clipPath id="71ef5d8a6a"><path d="M 225.054688 14.390625 L 225.054688 5.125 L 288.03125 5.125 L 288.03125 14.390625 C 280.847656 14.390625 275.0625 20.640625 275.0625 33.144531 L 275.0625 136.867188 C 275.0625 149.371094 280.847656 155.621094 288.03125 155.621094 L 288.03125 164.886719 L 225.054688 164.886719 L 225.054688 155.621094 C 232.238281 155.621094 238.023438 149.371094 238.023438 136.867188 L 238.023438 33.144531 C 238.023438 20.640625 232.238281 14.390625 225.054688 14.390625 " clip-rule="nonzero"/></clipPath><clipPath id="0e3a0c499a"><path d="M 0 0.0117188 L 63.222656 0.0117188 L 63.222656 160 L 0 160 Z M 0 0.0117188 " clip-rule="nonzero"/></clipPath><clipPath id="089502e7c0"><path d="M 0.0546875 9.390625 L 0.0546875 0.125 L 63.03125 0.125 L 63.03125 9.390625 C 55.847656 9.390625 50.0625 15.640625 50.0625 28.144531 L 50.0625 131.867188 C 50.0625 144.371094 55.847656 150.621094 63.03125 150.621094 L 63.03125 159.886719 L 0.0546875 159.886719 L 0.0546875 150.621094 C 7.238281 150.621094 13.023438 144.371094 13.023438 131.867188 L 13.023438 28.144531 C 13.023438 15.640625 7.238281 9.390625 0.0546875 9.390625 " clip-rule="nonzero"/></clipPath><clipPath id="8045407e47"><rect x="0" width="64" y="0" height="160"/></clipPath><clipPath id="e19f59252c"><path d="M 297 5 L 459.503906 5 L 459.503906 165 L 297 165 Z M 297 5 " clip-rule="nonzero"/></clipPath><clipPath id="eac272310d"><path d="M 369.988281 89.167969 C 383.875 89.167969 401.242188 80.832031 401.242188 55.832031 C 401.242188 30.828125 383.875 22.492188 369.988281 22.492188 L 347.300781 22.492188 L 347.300781 89.167969 Z M 459.359375 155.621094 L 459.359375 164.886719 L 389.207031 164.886719 L 389.207031 155.621094 C 396.386719 155.621094 393.835938 151.6875 387.121094 141.269531 L 365.121094 106.542969 L 347.300781 106.542969 L 347.300781 136.878906 C 347.300781 149.378906 353.085938 155.628906 360.265625 155.628906 L 360.265625 164.894531 L 297.292969 164.894531 L 297.292969 155.628906 C 304.476562 155.628906 310.261719 149.378906 310.261719 136.878906 L 310.261719 33.144531 C 310.261719 20.640625 304.476562 14.390625 297.292969 14.390625 L 297.292969 5.125 L 376.9375 5.125 C 409.351562 5.125 438.289062 22.726562 438.289062 55.832031 C 438.289062 88.933594 409.351562 106.535156 376.9375 106.535156 C 388.972656 112.554688 397.773438 113.484375 413.289062 113.484375 L 431.109375 141.269531 C 438.058594 151.917969 452.179688 155.621094 459.359375 155.621094 " clip-rule="nonzero"/></clipPath><clipPath id="cdd58244c3"><path d="M 0.289062 0.0117188 L 162.503906 0.0117188 L 162.503906 160 L 0.289062 160 Z M 0.289062 0.0117188 " clip-rule="nonzero"/></clipPath><clipPath id="45eeb2e4a8"><path d="M 72.988281 84.167969 C 86.875 84.167969 104.242188 75.832031 104.242188 50.832031 C 104.242188 25.828125 86.875 17.492188 72.988281 17.492188 L 50.300781 17.492188 L 50.300781 84.167969 Z M 162.359375 150.621094 L 162.359375 159.886719 L 92.207031 159.886719 L 92.207031 150.621094 C 99.386719 150.621094 96.835938 146.6875 90.121094 136.269531 L 68.121094 101.542969 L 50.300781 101.542969 L 50.300781 131.878906 C 50.300781 144.378906 56.085938 150.628906 63.265625 150.628906 L 63.265625 159.894531 L 0.292969 159.894531 L 0.292969 150.628906 C 7.476562 150.628906 13.261719 144.378906 13.261719 131.878906 L 13.261719 28.144531 C 13.261719 15.640625 7.476562 9.390625 0.292969 9.390625 L 0.292969 0.125 L 79.9375 0.125 C 112.351562 0.125 141.289062 17.726562 141.289062 50.832031 C 141.289062 83.933594 112.351562 101.535156 79.9375 101.535156 C 91.972656 107.554688 100.773438 108.484375 116.289062 108.484375 L 134.109375 136.269531 C 141.058594 146.917969 155.179688 150.621094 162.359375 150.621094 " clip-rule="nonzero"/></clipPath><clipPath id="45b33fe726"><rect x="0" width="163" y="0" height="160"/></clipPath><clipPath id="a7c21c5c09"><path d="M 468.128906 5 L 648.613281 5 L 648.613281 165 L 468.128906 165 Z M 468.128906 5 " clip-rule="nonzero"/></clipPath><clipPath id="86abd0520f"><path d="M 572.582031 108.851562 L 547.8125 47.960938 L 523.039062 108.851562 Z M 648.289062 155.621094 L 648.289062 164.886719 L 582.300781 164.886719 L 582.300781 155.621094 C 589.472656 155.621094 589.472656 150.523438 584.851562 138.953125 L 579.753906 126.21875 L 515.859375 126.21875 L 510.773438 138.953125 C 506.140625 150.53125 506.140625 155.621094 513.320312 155.621094 L 513.320312 164.886719 L 468.625 164.886719 L 468.625 155.621094 C 475.804688 155.621094 487.375 150.523438 492.007812 138.953125 L 533.011719 38.179688 C 537.421875 27.359375 530.070312 15.058594 518.398438 14.410156 C 518.085938 14.390625 517.769531 14.382812 517.476562 14.382812 L 517.476562 5.125 L 583.464844 5.125 L 583.464844 14.390625 C 576.285156 14.390625 576.285156 19.480469 580.914062 31.058594 L 624.902344 138.953125 C 629.535156 150.53125 641.105469 155.621094 648.289062 155.621094 " clip-rule="nonzero"/></clipPath><clipPath id="5910be38fd"><path d="M 0.605469 0.0117188 L 180.515625 0.0117188 L 180.515625 160 L 0.605469 160 Z M 0.605469 0.0117188 " clip-rule="nonzero"/></clipPath><clipPath id="efdaa85219"><path d="M 104.582031 103.851562 L 79.8125 42.960938 L 55.039062 103.851562 Z M 180.289062 150.621094 L 180.289062 159.886719 L 114.300781 159.886719 L 114.300781 150.621094 C 121.472656 150.621094 121.472656 145.523438 116.851562 133.953125 L 111.753906 121.21875 L 47.859375 121.21875 L 42.773438 133.953125 C 38.140625 145.53125 38.140625 150.621094 45.320312 150.621094 L 45.320312 159.886719 L 0.625 159.886719 L 0.625 150.621094 C 7.804688 150.621094 19.375 145.523438 24.007812 133.953125 L 65.011719 33.179688 C 69.421875 22.359375 62.070312 10.058594 50.398438 9.410156 C 50.085938 9.390625 49.769531 9.382812 49.476562 9.382812 L 49.476562 0.125 L 115.464844 0.125 L 115.464844 9.390625 C 108.285156 9.390625 108.285156 14.480469 112.914062 26.058594 L 156.902344 133.953125 C 161.535156 145.53125 173.105469 150.621094 180.289062 150.621094 " clip-rule="nonzero"/></clipPath><clipPath id="a9ad529065"><rect x="0" width="181" y="0" height="160"/></clipPath><clipPath id="c40a9f5dee"><path d="M 6.300781 5 L 215.980469 5 L 215.980469 165 L 6.300781 165 Z M 6.300781 5 " clip-rule="nonzero"/></clipPath><clipPath id="1d5ba60e69"><path d="M 110.671875 120.65625 L 101.761719 138.859375 C 101.761719 138.859375 88.105469 113.765625 97.804688 91.199219 L 60.199219 5.125 L 6.714844 5.125 L 6.714844 14.390625 C 13.894531 14.390625 19.679688 20.640625 19.679688 33.144531 L 19.679688 136.867188 C 19.679688 149.371094 13.894531 155.621094 6.714844 155.621094 L 6.714844 164.886719 L 50.003906 164.886719 L 50.003906 155.621094 C 42.824219 155.621094 37.039062 149.371094 37.039062 136.867188 L 37.039062 44.714844 L 89.59375 164.875 L 108.578125 164.875 L 165.773438 44.949219 L 165.773438 136.867188 C 165.773438 149.371094 159.988281 155.621094 152.808594 155.621094 L 152.808594 164.886719 L 215.78125 164.886719 L 215.78125 155.621094 C 208.601562 155.621094 202.816406 149.371094 202.816406 136.867188 L 202.816406 33.144531 C 202.816406 20.640625 208.601562 14.390625 215.78125 14.390625 L 215.78125 5.125 L 165.773438 5.125 Z M 110.671875 120.65625 " clip-rule="nonzero"/></clipPath><clipPath id="211c75f9df"><path d="M 0.667969 0.0117188 L 209.925781 0.0117188 L 209.925781 160 L 0.667969 160 Z M 0.667969 0.0117188 " clip-rule="nonzero"/></clipPath><clipPath id="42884564f0"><path d="M 104.671875 115.65625 L 95.761719 133.859375 C 95.761719 133.859375 82.105469 108.765625 91.804688 86.199219 L 54.199219 0.125 L 0.714844 0.125 L 0.714844 9.390625 C 7.894531 9.390625 13.679688 15.640625 13.679688 28.144531 L 13.679688 131.867188 C 13.679688 144.371094 7.894531 150.621094 0.714844 150.621094 L 0.714844 159.886719 L 44.003906 159.886719 L 44.003906 150.621094 C 36.824219 150.621094 31.039062 144.371094 31.039062 131.867188 L 31.039062 39.714844 L 83.59375 159.875 L 102.578125 159.875 L 159.773438 39.949219 L 159.773438 131.867188 C 159.773438 144.371094 153.988281 150.621094 146.808594 150.621094 L 146.808594 159.886719 L 209.78125 159.886719 L 209.78125 150.621094 C 202.601562 150.621094 196.816406 144.371094 196.816406 131.867188 L 196.816406 28.144531 C 196.816406 15.640625 202.601562 9.390625 209.78125 9.390625 L 209.78125 0.125 L 159.773438 0.125 Z M 104.671875 115.65625 " clip-rule="nonzero"/></clipPath><clipPath id="0b6f4a04a1"><rect x="0" width="210" y="0" height="160"/></clipPath></defs><g clip-path="url(#bab8c4cb9f)"><g clip-path="url(#71ef5d8a6a)"><g transform="matrix(1, 0, 0, 1, 225, 5)"><g clip-path="url(#8045407e47)"><g clip-path="url(#0e3a0c499a)"><g clip-path="url(#089502e7c0)"><rect x="-369.21" width="943.92" fill="#000000" height="246.240003" y="-42.62" fill-opacity="1"/></g></g></g></g></g></g><g clip-path="url(#e19f59252c)"><g clip-path="url(#eac272310d)"><g transform="matrix(1, 0, 0, 1, 297, 5)"><g clip-path="url(#45b33fe726)"><g clip-path="url(#cdd58244c3)"><g clip-path="url(#45eeb2e4a8)"><rect x="-441.21" width="943.92" fill="#000000" height="246.240003" y="-42.62" fill-opacity="1"/></g></g></g></g></g></g><g clip-path="url(#a7c21c5c09)"><g clip-path="url(#86abd0520f)"><g transform="matrix(1, 0, 0, 1, 468, 5)"><g clip-path="url(#a9ad529065)"><g clip-path="url(#5910be38fd)"><g clip-path="url(#efdaa85219)"><rect x="-612.21" width="943.92" fill="#000000" height="246.240003" y="-42.62" fill-opacity="1"/></g></g></g></g></g></g><g clip-path="url(#c40a9f5dee)"><g clip-path="url(#1d5ba60e69)"><g transform="matrix(1, 0, 0, 1, 6, 5)"><g clip-path="url(#0b6f4a04a1)"><g clip-path="url(#211c75f9df)"><g clip-path="url(#42884564f0)"><rect x="-150.21" width="943.92" fill="#000000" height="246.240003" y="-42.62" fill-opacity="1"/></g></g></g></g></g></g></svg>